<?xml version="1.0" encoding="UTF-8"?>
<svg id="Layer_2" data-name="Layer 2" xmlns="http://www.w3.org/2000/svg" xmlns:xlink="http://www.w3.org/1999/xlink" viewBox="0 0 309.88 173.74">
  <defs>
    <style>
      .cls-1 {
        fill: #fff;
        stroke: #231f20;
      }

      .cls-1, .cls-2, .cls-3, .cls-4, .cls-5, .cls-6 {
        stroke-miterlimit: 10;
      }

      .cls-2 {
        fill: url(#Purple_Orange_5-2);
      }

      .cls-2, .cls-4, .cls-5, .cls-6 {
        stroke: #fff;
      }

      .cls-3 {
        fill: url(#Purple_Orange_4);
        opacity: .54;
        stroke: #000;
      }

      .cls-4 {
        fill: url(#Purple_Orange_5);
      }

      .cls-5 {
        fill: url(#Purple_Orange_5-4);
      }

      .cls-6 {
        fill: url(#Purple_Orange_5-3);
      }
    </style>
    <linearGradient id="Purple_Orange_4" data-name="Purple, Orange 4" x1=".55" y1="49.08" x2="309.33" y2="49.08" gradientUnits="userSpaceOnUse">
      <stop offset="0" stop-color="#704ea0"/>
      <stop offset=".52" stop-color="#fab517"/>
      <stop offset="1" stop-color="#fab517"/>
    </linearGradient>
    <linearGradient id="Purple_Orange_5" data-name="Purple, Orange 5" x1="31.87" y1="141.17" x2="88.25" y2="141.17" gradientUnits="userSpaceOnUse">
      <stop offset="0" stop-color="#644c9f"/>
      <stop offset=".52" stop-color="#cd6eac"/>
      <stop offset="1" stop-color="#cd6eac"/>
    </linearGradient>
    <linearGradient id="Purple_Orange_5-2" data-name="Purple, Orange 5" x1="237.48" x2="285.28" xlink:href="#Purple_Orange_5"/>
    <linearGradient id="Purple_Orange_5-3" data-name="Purple, Orange 5" x1="90.27" y1="141.14" x2="154.94" y2="141.14" xlink:href="#Purple_Orange_5"/>
    <linearGradient id="Purple_Orange_5-4" data-name="Purple, Orange 5" x1="149.7" y1="140.78" x2="235.93" y2="140.78" xlink:href="#Purple_Orange_5"/>
  </defs>
  <g id="Layer_1-2" data-name="Layer 1">
    <polygon class="cls-3" points=".55 .5 10.57 97.66 309.33 97.66 299.31 .5 .55 .5"/>
    <path class="cls-4" d="M31.87,109.94c9.55-.09,19.1-.17,28.65-.26,6.22-.06,11.92,2.57,17.29,7.19,9.86,8.47,10.4,21.58,10.44,25.03.04,2.31-.03,12.65-7.99,21.35-6.53,7.13-14.5,8.92-17.16,9.41-5.53-.02-11.05-.03-16.58-.05,1.4-3.55,2.79-7.11,4.19-10.66,2.2.57,6.24,1.27,10.91.05,7.36-1.93,14.53-8.17,16.05-16.64,1.79-9.97-4.65-20.85-15.74-24.69h-19.35v51.99h-10.71v-62.71Z"/>
    <polygon class="cls-2" points="285.28 109.68 285.28 172.65 273.28 172.65 248.32 130.2 248.32 172.65 237.48 172.65 237.48 109.68 249.87 109.68 274.25 152.19 274.25 109.68 285.28 109.68"/>
    <path class="cls-6" d="M109.33,111.68c2.68-1.12,11.54-4.42,22.21-1.39,2.94.84,13.91,4.39,19.9,15.78,6.02,11.45,2.62,22.44,1.74,25.12-.8,2.45-3.34,9.85-10.84,15.59-8.32,6.37-17.23,6.47-19.94,6.45-4.2-.02-14.53-.85-22.74-8.96-6.22-6.14-7.91-13.2-8.52-15.88-.85-3.76-2.84-15.62,4.74-26.18,4.58-6.38,10.54-9.33,13.44-10.54,1.78,3.01,3.57,6.03,5.35,9.04-1.34.52-9.36,3.79-12.69,12.57-2.32,6.12-1.09,11.59-.28,14.14.3.95,3.41,10.15,13.06,13.93,6.2,2.43,11.68,1.29,13.22.91,2.24-.54,6.3-1.9,9.91-5.4,4.88-4.73,7.71-12.18,6.19-19.73-1.74-8.67-8.33-13.13-9.77-14.05-8.9-5.69-18.35-2.79-19.63-2.37-1.78-3.01-3.57-6.03-5.35-9.04Z"/>
    <path class="cls-5" d="M149.7,109.68h11.52l13.74,43.81,12.97-43.81h11.23l12.97,43.81,13.16-43.81h10.65l-18,62.19h-10.65c-4.58-14.39-9.16-28.77-13.74-43.16-4.32,14.39-8.65,28.77-12.97,43.16h-11.23c-6.55-20.73-13.1-41.46-19.65-62.19Z"/>
    <g>
      <path class="cls-1" d="M61.07,58.78l8.15,2.3c-1.71,7.49-4.78,13.19-9.22,17.12-4.44,3.93-9.87,5.9-16.28,5.9s-12.04-1.51-16.2-4.53c-4.16-3.02-7.32-7.4-9.5-13.13-2.17-5.73-3.26-11.89-3.26-18.46,0-7.17,1.22-13.43,3.68-18.77,2.45-5.34,5.94-9.4,10.46-12.17,4.52-2.77,9.5-4.16,14.94-4.16,6.16,0,11.34,1.75,15.54,5.26,4.2,3.51,7.13,8.44,8.78,14.8l-8.02,2.11c-1.43-5.01-3.5-8.66-6.22-10.95-2.72-2.29-6.13-3.43-10.25-3.43-4.73,0-8.69,1.27-11.87,3.81-3.18,2.54-5.41,5.94-6.7,10.22-1.29,4.27-1.93,8.68-1.93,13.22,0,5.86.76,10.97,2.29,15.34,1.53,4.37,3.9,7.63,7.12,9.79,3.22,2.16,6.71,3.24,10.46,3.24,4.56,0,8.43-1.47,11.6-4.42,3.17-2.94,5.31-7.31,6.43-13.11Z"/>
      <path class="cls-1" d="M70.76,49.39c0-11.43,2.75-20.38,8.23-26.85,5.49-6.47,12.58-9.7,21.26-9.7,5.69,0,10.81,1.52,15.38,4.56,4.56,3.04,8.05,7.27,10.44,12.71,2.39,5.43,3.59,11.6,3.59,18.49s-1.26,13.23-3.78,18.74c-2.52,5.51-6.09,9.69-10.71,12.52-4.62,2.83-9.61,4.25-14.96,4.25-5.8,0-10.98-1.57-15.55-4.7-4.57-3.13-8.02-7.41-10.38-12.83-2.35-5.42-3.53-11.15-3.53-17.19ZM79.17,49.53c0,8.3,2,14.84,5.99,19.61,3.99,4.78,9,7.16,15.02,7.16s11.18-2.41,15.15-7.23c3.96-4.82,5.95-11.67,5.95-20.53,0-5.61-.85-10.5-2.54-14.68-1.69-4.18-4.17-7.42-7.44-9.72-3.26-2.3-6.93-3.45-10.99-3.45-5.77,0-10.73,2.22-14.89,6.65-4.16,4.43-6.24,11.83-6.24,22.2Z"/>
      <path class="cls-1" d="M174.57,14.06h8.15v39.79c0,6.92-.7,12.42-2.1,16.49-1.4,4.07-3.93,7.38-7.58,9.94-3.66,2.55-8.45,3.83-14.39,3.83s-10.49-1.11-14.16-3.34c-3.67-2.22-6.29-5.44-7.86-9.65-1.57-4.21-2.35-9.97-2.35-17.26V14.06h8.15v39.74c0,5.98.5,10.39,1.49,13.22.99,2.83,2.7,5.02,5.13,6.55,2.42,1.53,5.38,2.3,8.89,2.3,5.99,0,10.27-1.52,12.81-4.56,2.55-3.04,3.82-8.88,3.82-17.52V14.06Z"/>
      <path class="cls-1" d="M190.18,82.93V14.06h8.36l32.35,54.07V14.06h7.82v68.87h-8.36l-32.35-54.12v54.12h-7.81Z"/>
      <path class="cls-1" d="M262.05,82.93V22.19h-20.29v-8.13h48.82v8.13h-20.38v60.74h-8.15Z"/>
    </g>
  </g>
</svg>