<svg xmlns="http://www.w3.org/2000/svg" xmlns:xlink="http://www.w3.org/1999/xlink" viewBox="0 0 263.23 151.38"><defs><style>.cls-1{fill:url(#Fading_Sky);}.cls-2{fill:#fdee23;}.cls-3{fill:#ec008c;}.cls-4{fill:#00aeef;}.cls-5{fill:#fbb040;}</style><linearGradient id="Fading_Sky" y1="55.74" x2="263.23" y2="55.74" gradientUnits="userSpaceOnUse"><stop offset="0" stop-color="#2484c6"/><stop offset="1" stop-color="#2484c6" stop-opacity="0"/></linearGradient></defs><g id="Layer_2" data-name="Layer 2"><g id="Layer_1-2" data-name="Layer 1"><path class="cls-1" d="M19.61,111.48Q9.82,55.74,0,0H242.58l20.65,111.48Z"/><path class="cls-2" d="M85.42,55.7a26.86,26.86,0,0,0-3.73-13,25.9,25.9,0,0,0-7-7.74,24.68,24.68,0,0,0-10.34-4.28l-22.24.46a2.45,2.45,0,0,0-2.4,2.44l-.24,59.76a2.44,2.44,0,0,1-2.38,2.43l-8.91.25a2.45,2.45,0,0,1-2.52-2.45l.12-74.13A2.45,2.45,0,0,1,28.25,17H69.16a2.41,2.41,0,0,1,1,.21,27.43,27.43,0,0,1,4.17,1.39A27.1,27.1,0,0,1,78.71,21l.25.13.23.15L85,25.7a1.86,1.86,0,0,1,.26.23A34.4,34.4,0,0,1,96.19,40.12c2.33,5.79,2.43,11,2.52,15.77a55.86,55.86,0,0,1-.9,10.63,35.5,35.5,0,0,1-4.76,11.34,39.21,39.21,0,0,1-15.8,14A44,44,0,0,1,66.6,95.67l-2.6.07H49a2.45,2.45,0,0,1-2.29-3.32l3-8A2.47,2.47,0,0,1,52,82.8l11.08-.21a2.54,2.54,0,0,0,.82-.16l4.92-1.88.2-.08a39.23,39.23,0,0,0,3.71-1.89,28.77,28.77,0,0,0,10.9-12.52A26.2,26.2,0,0,0,85.42,55.7Z"/><polygon class="cls-3" points="94.97 95.74 109.94 95.74 115.87 83.1 149.16 83.1 143.23 69.16 122.06 69.16 138.58 33.81 166.97 95.74 181.94 95.74 146.58 17.03 131.61 17.03 94.97 95.74"/><path class="cls-4" d="M58.06,124.4c5.78,0,9.43,1.15,12,3.57a11.87,11.87,0,0,1,3.49,8.77,13.47,13.47,0,0,1-5.13,11.07c-3.11,2.34-7.09,3.24-12.13,3.24h-9.6V149.9c3.53-.32,3.69-.61,3.69-4V129.57c0-3.53-.49-3.69-3.69-4V124.4Zm-4.14,21.2c0,3.07,1.31,3.94,4.39,3.94,7.38,0,11.15-5,11.15-12.22,0-4.47-1.52-7.88-4.76-9.84a12.94,12.94,0,0,0-7-1.64c-1.84,0-2.83.24-3.24.57s-.53.7-.53,2.3Z"/><path class="cls-4" d="M110.66,151.38c-.53,0-1,0-1.51-.08-3-.21-4.6-1-6.4-3.53-1.52-2.09-3-4.67-4.31-6.76-.82-1.32-1.35-1.56-3.44-1.56H93.57v6.44c0,3.48.45,3.69,3.73,4v1.15h-11V149.9c3.4-.36,3.69-.53,3.69-4V129.53c0-3.49-.45-3.61-3.69-4V124.4H96.8c3,0,5,.37,6.56,1.4a6.12,6.12,0,0,1,2.79,5.41c0,3.52-2.25,5.74-5.29,7,.74,1.27,2.5,4,3.73,5.86a38.41,38.41,0,0,0,3.24,4.23,5.84,5.84,0,0,0,3,1.88ZM95.53,138.06c2.14,0,3.49-.33,4.51-1.19a5.77,5.77,0,0,0,2.26-5.05c0-4.38-2.91-6-6.07-6a3.69,3.69,0,0,0-2.17.41c-.37.28-.49.69-.49,1.76v10.05Z"/><path class="cls-4" d="M142.4,144.53c-.25,1.07-1.36,5.29-1.77,6.52H120.71V149.9c3.81-.28,4.1-.65,4.1-4v-16.2c0-3.65-.45-3.85-3.53-4.14V124.4h12.55c3.85,0,5.45,0,5.94-.08,0,1,.21,4.1.37,6.27l-1.23.21a13.66,13.66,0,0,0-1.23-3.12c-.66-1.35-1.6-1.64-4.06-1.64h-3.89c-1.27,0-1.36.12-1.36,1.31v9.07h4.55c3.08,0,3.29-.62,3.78-3.41H138v8.45H136.7c-.54-3-.86-3.36-3.82-3.36h-4.51v8.16c0,2.87.91,3.11,3,3.15h3.81c2.5,0,2.91-.37,3.81-1.43a18,18,0,0,0,2.22-3.77Z"/><path class="cls-4" d="M167.94,151.05V149.9c2.66-.32,3-.73,2.42-2.29s-1.36-3.65-2.22-6.23h-8.85c-.66,1.84-1.27,3.44-1.85,5.12-.9,2.67-.33,3,3,3.4v1.15H151V149.9c2.59-.32,3.24-.61,4.68-4.3l8.49-21.53,1.31-.24c2.58,7,5.41,14.76,8,21.85,1.31,3.57,1.68,3.9,4.59,4.22v1.15Zm-4.1-21.85c-1.31,3.52-2.71,7.26-3.94,10.49h7.67Z"/><path class="cls-4" d="M211.56,151.05V149.9c3.36-.32,3.49-.57,3.45-5l0-16.72c-3.36,7.5-8.78,19.22-10.21,22.83h-1.07c-1.39-3.73-6-15-9.14-22.42-.7,14.34-.74,17.58-.74,18.36,0,2.3,1.07,2.63,3.86,2.91v1.15H188V149.9c2.38-.24,3.36-.73,3.69-3,.24-1.8.28-3.28,1.35-18.24.17-2.14-.24-2.83-3.85-3.16V124.4h7.13l9.06,20.79,9.72-20.79h7.17v1.15c-3.52.41-4,.78-3.89,3.65l.16,15.74c.17,4.39.29,4.6,3.9,5v1.15Z"/><polygon class="cls-5" points="159.48 17.03 175.74 17.03 197.94 52.65 220.65 17.03 236.13 17.03 205.16 66.84 205.42 95.74 191.23 95.74 190.97 67.36 159.48 17.03"/></g></g></svg>