<?xml version="1.0" encoding="UTF-8"?>
<svg id="Layer_2" data-name="Layer 2" xmlns="http://www.w3.org/2000/svg" viewBox="0 0 233.03 77.8">
  <defs>
    <style>
      .cls-1 {
        fill: #6f2d91;
      }

      .cls-1, .cls-2, .cls-3, .cls-4 {
        stroke-width: 0px;
      }

      .cls-2 {
        fill: #0272bb;
      }

      .cls-5 {
        fill: #a14935;
        font-family: CascadiaCodeRoman-SemiLight, 'Cascadia Code';
        font-size: 14px;
        font-variation-settings: 'wght' 350;
        font-weight: 300;
      }

      .cls-3 {
        fill: #ec008c;
      }

      .cls-4 {
        fill: #f78621;
      }
    </style>
  </defs>
  <g id="Layer_1-2" data-name="Layer 1">
    <g>
      <g>
        <g>
          <polygon class="cls-2" points="0 0 0 49.94 14.45 49.94 14.45 43.1 7.23 43.1 7.23 7.48 14.45 7.48 14.45 0 0 0"/>
          <polygon class="cls-2" points="17.16 42.84 17.16 49.94 25.94 49.94 34.06 41.55 34.06 8.9 26.19 0 17.16 0 17.16 7.1 22.97 7.1 26.97 10.97 26.97 38.58 23.1 42.84 17.16 42.84"/>
        </g>
        <g>
          <polygon class="cls-1" points="48.45 0 48.45 49.94 55.55 49.94 55.55 28.77 62.65 28.65 62.65 21.55 55.55 21.55 55.55 7.61 62.65 7.61 62.65 0 48.45 0"/>
          <polygon class="cls-1" points="65.1 0 65.1 7.61 71.55 7.61 75.68 11.74 75.68 17.42 72.06 21.55 65.1 21.55 65.1 29.03 71.94 29.03 75.68 32.39 75.68 49.94 82.9 49.94 82.9 29.94 78.26 24.97 82.9 20.77 82.9 7.74 75.16 0 65.1 0"/>
        </g>
        <g>
          <rect class="cls-4" x="95.85" width="7.74" height="49.94"/>
          <rect class="cls-4" x="106.31" width="24" height="7.35"/>
          <rect class="cls-4" x="106.31" y="21.42" width="12.77" height="7.23"/>
          <rect class="cls-4" x="106.31" y="42.58" width="24" height="7.35"/>
        </g>
        <g>
          <polygon class="cls-3" points="155.68 .06 142.65 50 150.13 50 163.03 .06 155.68 .06"/>
          <polygon class="cls-3" points="169.35 50 177.35 50 164.58 4.71 160.97 19.03 163.03 28.71 158.13 28.71 156.45 36.27 165.74 36.27 169.35 50"/>
        </g>
        <g>
          <rect class="cls-1" x="198.32" y=".06" width="7.74" height="49.94"/>
          <polygon class="cls-1" points="208.13 3.03 208.13 13.35 215.65 20.45 222.97 13.1 222.97 3.03 215.65 10.26 208.13 3.03"/>
          <rect class="cls-1" x="225.68" y=".06" width="7.35" height="49.94"/>
        </g>
      </g>
      <text id="LOTTERY" class="cls-5" transform="translate(86.71 71.04)"><tspan x="0" y="0">LOTTERY</tspan></text>
    </g>
  </g>
</svg>